<?xml version="1.0" encoding="utf-8"?>
<!-- Generator: Adobe Illustrator 26.3.1, SVG Export Plug-In . SVG Version: 6.00 Build 0)  -->
<svg version="1.1" id="Capa_1" xmlns="http://www.w3.org/2000/svg" xmlns:xlink="http://www.w3.org/1999/xlink" x="0px" y="0px"
	 viewBox="0 0 595.28 400.38" style="enable-background:new 0 0 595.28 400.38;" xml:space="preserve">
<style type="text/css">
	.st0{clip-path:url(#SVGID_00000160888128974568088030000004509036586382130072_);fill:#E74344;}
	.st1{clip-path:url(#SVGID_00000160888128974568088030000004509036586382130072_);fill:#00649D;}
	.st2{fill:#00649D;}
	.st3{fill:#E74344;}
</style>
<g>
	<defs>
		<path id="SVGID_1_" d="M368.91,173.08c2.83,4.65,4.24,10.03,4.24,16.12c0,7.2-1.9,13.49-5.7,18.86
			c-3.81,5.38-9.15,9.53-16.04,12.47c-6.89,2.93-14.86,4.4-23.9,4.4c-9.05,0-16.99-1.47-23.82-4.4
			c-6.84-2.93-12.13-7.09-15.88-12.47c-3.75-5.37-5.63-11.66-5.63-18.86c0-6.09,1.41-11.47,4.24-16.12
			c2.83-4.65,6.86-8.42,12.1-11.3c-4.01-2.66-7.09-6.01-9.25-10.06c-2.16-4.04-3.24-8.67-3.24-13.88c0-6.76,1.75-12.63,5.24-17.62
			c3.49-4.99,8.38-8.83,14.65-11.55c6.27-2.71,13.47-4.07,21.59-4.07c8.22,0,15.5,1.36,21.82,4.07c6.32,2.72,11.23,6.57,14.73,11.55
			c3.49,4.99,5.24,10.86,5.24,17.62c0,5.21-1.08,9.83-3.24,13.88c-2.16,4.05-5.3,7.4-9.41,10.06
			C362,164.66,366.08,168.43,368.91,173.08z M342.39,200.59c3.65-3.05,5.47-7.12,5.47-12.22c0-5.1-1.83-9.14-5.47-12.13
			c-3.65-2.99-8.61-4.49-14.88-4.49c-6.17,0-11.05,1.5-14.65,4.49c-3.6,2.99-5.4,7.04-5.4,12.13c0,5.21,1.8,9.31,5.4,12.3
			c3.6,2.99,8.48,4.49,14.65,4.49C333.78,205.16,338.74,203.64,342.39,200.59z M315.41,128.29c-3.03,2.6-4.55,6.18-4.55,10.72
			c0,4.43,1.49,7.92,4.47,10.47c2.98,2.55,7.04,3.82,12.18,3.82c5.14,0,9.25-1.27,12.34-3.82c3.08-2.55,4.63-6.04,4.63-10.47
			c0-4.54-1.54-8.12-4.63-10.72c-3.08-2.6-7.2-3.91-12.34-3.91C322.47,124.38,318.44,125.69,315.41,128.29z"/>
	</defs>
	<clipPath id="SVGID_00000098941502269654396710000003266324143813873060_">
		<use xlink:href="#SVGID_1_"  style="overflow:visible;"/>
	</clipPath>
	
		<rect x="244.03" y="72.02" style="clip-path:url(#SVGID_00000098941502269654396710000003266324143813873060_);fill:#E74344;" width="130.36" height="184.6"/>
	<polygon style="clip-path:url(#SVGID_00000098941502269654396710000003266324143813873060_);fill:#00649D;" points="508.84,130.33 
		325.97,93.59 318.01,118.8 280.29,109.76 273.05,204.33 	"/>
</g>
<g>
	<path class="st2" d="M444.43,111.75c-6.99-4.76-14.96-7.15-23.9-7.15c-6.85,0-13.12,1.41-18.82,4.2l50.8,10.21
		C450.09,116.21,447.41,113.78,444.43,111.75z"/>
	<path class="st3" d="M452.51,119.01l-50.8-10.21c-1.75,0.85-3.44,1.83-5.08,2.94c-6.99,4.77-12.47,11.66-16.42,20.69
		c-3.96,9.03-5.94,19.81-5.94,32.33c0,2.65,0.11,5.21,0.29,7.7l25-7.85c0.01-12.67,1.89-22.04,5.63-28.11
		c3.75-6.09,8.87-9.14,15.34-9.14c6.58,0,11.74,3.05,15.5,9.14c2.32,3.78,3.93,8.83,4.81,15.15l23.81-7.47
		c-0.95-4.19-2.21-8.12-3.8-11.75C458.58,127.25,455.79,122.79,452.51,119.01z"/>
</g>
<g>
	<path class="st2" d="M405.19,193.03c-3.75-6.09-5.63-15.51-5.63-28.26c0-0.05,0-0.1,0-0.15l-25,7.85
		c0.62,8.77,2.34,16.57,5.15,23.4h27.52C406.51,195.01,405.83,194.07,405.19,193.03z"/>
	<path class="st2" d="M466.79,164.77c0-7.49-0.72-14.33-2.14-20.57l-23.81,7.47c0.54,3.89,0.82,8.25,0.82,13.1
		c0,4.51-0.24,8.59-0.71,12.27h25.13C466.54,173.15,466.79,169.07,466.79,164.77z"/>
</g>
<path class="st2" d="M136.03,189.38c3.35-0.09,12.55,0.3,14.32,0.26c3.05-0.08,7.96,0.84,6.47,7.59c-1.48,6.75-0.64,2.77-1.38,6.41
	c-1.03,5.11,1.5,8.1,6.04,8.16c3.3,0.04,47.52-0.02,47.52-0.02c4.6-0.12,9.08-3.91,10.02-8.46l18.68-86.75c0,0-14.4,1.21-27.91,7.02
	c-18.93,8.15-26.16,17.67-26.16,17.67c5.23,19.45,8.78,32.12,9.73,35.43c0,0.01-13.29,14.11-25.82,11.26
	c-11.59-2.64-10.57-15.66,1.36-20.12c9-3.37,18.6,3.03,18.6,3.03l-14.5-50.9l-22.38,0.02c-4.74,0.13-10.43,3.89-11.32,8.43
	c0,0-9.67,52.84-9.89,54.09C128.76,186.32,131.44,189.5,136.03,189.38"/>
<g>
	<path class="st2" d="M397.16,219.39v4.15h-17.29v-22.33h16.88v4.15h-11.74v4.85h10.37v4.02h-10.37v5.17H397.16z"/>
	<path class="st2" d="M420.97,223.54l-0.03-13.4l-6.57,11.04h-2.33l-6.54-10.75v13.11h-4.85v-22.33h4.28l8.36,13.88l8.23-13.88h4.24
		l0.06,22.33H420.97z"/>
	<path class="st2" d="M449.69,213.95c0.72,0.95,1.08,2.11,1.08,3.49c0,1.96-0.76,3.46-2.28,4.51c-1.52,1.05-3.74,1.58-6.65,1.58
		H430.3v-22.33h10.91c2.72,0,4.81,0.52,6.27,1.56c1.46,1.04,2.19,2.46,2.19,4.24c0,1.08-0.26,2.05-0.78,2.9
		c-0.52,0.85-1.25,1.52-2.19,2.01C447.97,212.33,448.97,213.01,449.69,213.95z M435.43,205.1v5.26h5.14c1.28,0,2.24-0.22,2.9-0.67
		s0.99-1.11,0.99-1.98c0-0.87-0.33-1.53-0.99-1.96s-1.63-0.65-2.9-0.65H435.43z M444.54,218.98c0.69-0.45,1.04-1.14,1.04-2.07
		c0-1.85-1.37-2.78-4.12-2.78h-6.03v5.52h6.03C442.82,219.65,443.85,219.42,444.54,218.98z"/>
	<path class="st2" d="M468.4,218.75h-10.37l-1.98,4.79h-5.3l9.96-22.33h5.1l9.99,22.33h-5.42L468.4,218.75z M466.77,214.83
		l-3.54-8.55l-3.54,8.55H466.77z"/>
</g>
<g>
	<path class="st2" d="M136.06,275.44c-2.51-1.38-4.48-3.3-5.91-5.75c-1.43-2.45-2.14-5.2-2.14-8.24c0-3.04,0.71-5.78,2.14-8.24
		c1.43-2.45,3.41-4.37,5.94-5.75c2.53-1.38,5.36-2.08,8.49-2.08c2.35,0,4.51,0.39,6.5,1.17c1.99,0.78,3.67,1.93,5.06,3.43
		l-2.12,2.12c-2.47-2.5-5.58-3.75-9.34-3.75c-2.5,0-4.77,0.57-6.82,1.72c-2.05,1.14-3.65,2.71-4.81,4.69
		c-1.16,1.99-1.74,4.21-1.74,6.68c0,2.47,0.58,4.69,1.74,6.68c1.16,1.99,2.76,3.55,4.81,4.69c2.05,1.14,4.32,1.72,6.82,1.72
		c3.79,0,6.91-1.26,9.34-3.79l2.12,2.12c-1.38,1.5-3.08,2.66-5.08,3.45c-2,0.8-4.17,1.2-6.52,1.2
		C141.4,277.51,138.58,276.82,136.06,275.44z"/>
	<path class="st2" d="M182.15,268.8h-17.6l-3.79,8.44h-3.48l14.44-31.59h3.29l14.44,31.59h-3.52L182.15,268.8z M180.93,266.09
		l-7.58-16.97l-7.58,16.97H180.93z"/>
	<path class="st2" d="M214.56,277.24l-7.22-10.16c-0.81,0.09-1.66,0.14-2.53,0.14h-8.49v10.02h-3.34v-31.59h11.83
		c4.03,0,7.19,0.96,9.48,2.89c2.29,1.93,3.43,4.57,3.43,7.94c0,2.47-0.62,4.55-1.87,6.25c-1.25,1.7-3.03,2.93-5.35,3.68l7.72,10.83
		H214.56z M211.9,262.3c1.65-1.38,2.48-3.32,2.48-5.82c0-2.56-0.83-4.52-2.48-5.89c-1.66-1.37-4.05-2.05-7.18-2.05h-8.4v15.84h8.4
		C207.85,264.38,210.24,263.69,211.9,262.3z"/>
	<path class="st2" d="M223.75,245.65h3.34v28.71h17.69v2.89h-21.03V245.65z"/>
	<path class="st2" d="M252.46,275.41c-2.54-1.4-4.53-3.32-5.96-5.75c-1.43-2.44-2.14-5.17-2.14-8.21c0-3.04,0.71-5.78,2.14-8.21
		c1.43-2.44,3.42-4.36,5.96-5.75c2.54-1.4,5.38-2.1,8.51-2.1c3.13,0,5.95,0.69,8.46,2.08c2.51,1.38,4.49,3.3,5.94,5.75
		c1.44,2.45,2.17,5.2,2.17,8.24c0,3.04-0.72,5.79-2.17,8.24c-1.44,2.45-3.42,4.37-5.94,5.75c-2.51,1.38-5.33,2.08-8.46,2.08
		C257.83,277.51,255,276.81,252.46,275.41z M267.73,272.84c2.02-1.13,3.59-2.69,4.74-4.69c1.14-2,1.71-4.23,1.71-6.7
		c0-2.47-0.57-4.7-1.71-6.7c-1.14-2-2.72-3.57-4.74-4.69c-2.02-1.13-4.27-1.69-6.77-1.69c-2.5,0-4.76,0.56-6.79,1.69
		s-3.63,2.69-4.78,4.69c-1.16,2-1.74,4.24-1.74,6.7c0,2.47,0.58,4.7,1.74,6.7c1.16,2,2.75,3.57,4.78,4.69s4.29,1.69,6.79,1.69
		C263.46,274.53,265.72,273.97,267.73,272.84z"/>
	<path class="st2" d="M285.23,276.38c-2.15-0.75-3.81-1.75-4.99-2.98l1.31-2.57c1.14,1.14,2.66,2.07,4.56,2.78
		c1.9,0.71,3.85,1.06,5.87,1.06c2.83,0,4.95-0.52,6.36-1.56c1.41-1.04,2.12-2.38,2.12-4.04c0-1.26-0.38-2.27-1.15-3.02
		c-0.77-0.75-1.71-1.33-2.82-1.74s-2.66-0.85-4.65-1.33c-2.38-0.6-4.27-1.18-5.69-1.74c-1.42-0.56-2.63-1.41-3.63-2.55
		c-1.01-1.14-1.51-2.69-1.51-4.65c0-1.59,0.42-3.05,1.26-4.36c0.84-1.31,2.14-2.35,3.88-3.14c1.75-0.78,3.91-1.17,6.5-1.17
		c1.81,0,3.57,0.25,5.3,0.74s3.23,1.18,4.49,2.05l-1.13,2.66c-1.32-0.87-2.74-1.53-4.24-1.96c-1.5-0.44-2.98-0.65-4.42-0.65
		c-2.77,0-4.85,0.53-6.25,1.6c-1.4,1.07-2.1,2.45-2.1,4.13c0,1.26,0.38,2.28,1.15,3.05c0.77,0.77,1.73,1.35,2.89,1.76
		c1.16,0.41,2.71,0.85,4.67,1.33c2.32,0.57,4.19,1.14,5.62,1.69c1.43,0.56,2.64,1.4,3.63,2.53s1.49,2.66,1.49,4.58
		c0,1.6-0.43,3.05-1.29,4.36c-0.86,1.31-2.17,2.35-3.95,3.11c-1.78,0.77-3.96,1.15-6.54,1.15
		C289.63,277.51,287.38,277.14,285.23,276.38z"/>
	<path class="st2" d="M353.85,245.65v31.59h-3.21v-25.28l-12.41,21.26h-1.58l-12.41-21.12v25.14h-3.2v-31.59h2.75l13.72,23.43
		l13.59-23.43H353.85z"/>
	<path class="st2" d="M367.72,275.41c-2.54-1.4-4.53-3.32-5.96-5.75c-1.43-2.44-2.14-5.17-2.14-8.21c0-3.04,0.71-5.78,2.14-8.21
		c1.43-2.44,3.42-4.36,5.96-5.75c2.54-1.4,5.38-2.1,8.51-2.1c3.13,0,5.95,0.69,8.46,2.08c2.51,1.38,4.49,3.3,5.94,5.75
		c1.44,2.45,2.17,5.2,2.17,8.24c0,3.04-0.72,5.79-2.17,8.24c-1.44,2.45-3.42,4.37-5.94,5.75c-2.51,1.38-5.33,2.08-8.46,2.08
		C373.09,277.51,370.26,276.81,367.72,275.41z M382.99,272.84c2.02-1.13,3.59-2.69,4.74-4.69c1.14-2,1.71-4.23,1.71-6.7
		c0-2.47-0.57-4.7-1.71-6.7c-1.14-2-2.72-3.57-4.74-4.69c-2.02-1.13-4.27-1.69-6.77-1.69c-2.5,0-4.76,0.56-6.79,1.69
		s-3.63,2.69-4.78,4.69c-1.16,2-1.74,4.24-1.74,6.7c0,2.47,0.58,4.7,1.74,6.7c1.16,2,2.75,3.57,4.78,4.69s4.29,1.69,6.79,1.69
		C378.72,274.53,380.98,273.97,382.99,272.84z"/>
	<path class="st2" d="M420.05,277.24l-7.22-10.16c-0.81,0.09-1.66,0.14-2.53,0.14h-8.49v10.02h-3.34v-31.59h11.83
		c4.03,0,7.19,0.96,9.48,2.89c2.29,1.93,3.43,4.57,3.43,7.94c0,2.47-0.62,4.55-1.87,6.25c-1.25,1.7-3.03,2.93-5.35,3.68l7.72,10.83
		H420.05z M417.38,262.3c1.65-1.38,2.48-3.32,2.48-5.82c0-2.56-0.83-4.52-2.48-5.89c-1.66-1.37-4.05-2.05-7.18-2.05h-8.4v15.84h8.4
		C413.33,264.38,415.73,263.69,417.38,262.3z"/>
	<path class="st2" d="M451.58,274.35v2.89h-22.34v-31.59h21.67v2.89h-18.33v11.24h16.34v2.84h-16.34v11.74H451.58z"/>
	<path class="st2" d="M456.32,245.65h3.34v28.71h17.69v2.89h-21.03V245.65z"/>
</g>
<g>
	<path class="st3" d="M420.61,183.71c1.04,0.93,1.57,2.33,1.57,4.2v7.19h-3.42v-1.57c-0.69,1.17-1.97,1.76-3.84,1.76
		c-0.97,0-1.81-0.16-2.52-0.49s-1.25-0.78-1.63-1.36c-0.37-0.58-0.56-1.23-0.56-1.97c0-1.17,0.44-2.09,1.32-2.76
		c0.88-0.67,2.24-1.01,4.08-1.01h2.9c0-0.8-0.24-1.41-0.73-1.84s-1.21-0.64-2.18-0.64c-0.67,0-1.33,0.11-1.98,0.32
		c-0.65,0.21-1.2,0.5-1.65,0.85l-1.31-2.55c0.69-0.48,1.51-0.86,2.47-1.12s1.95-0.4,2.96-0.4
		C418.06,182.32,419.56,182.78,420.61,183.71z M417.5,192.39c0.48-0.29,0.83-0.71,1.03-1.28v-1.29h-2.5c-1.5,0-2.25,0.49-2.25,1.48
		c0,0.47,0.18,0.84,0.55,1.11c0.37,0.27,0.87,0.41,1.51,0.41C416.46,192.83,417.01,192.68,417.5,192.39z"/>
	<path class="st3" d="M436.63,183.72c0.96,0.94,1.44,2.33,1.44,4.17v7.21h-3.65v-6.65c0-1-0.22-1.74-0.66-2.24
		c-0.44-0.49-1.07-0.74-1.9-0.74c-0.92,0-1.65,0.28-2.2,0.85c-0.55,0.57-0.82,1.42-0.82,2.54v6.23h-3.65V182.5h3.49v1.47
		c0.48-0.53,1.08-0.94,1.8-1.23c0.72-0.29,1.51-0.43,2.36-0.43C434.41,182.32,435.67,182.78,436.63,183.72z M432.3,180.71
		c-0.32-0.16-0.68-0.39-1.07-0.67c-0.25-0.19-0.46-0.33-0.62-0.42c-0.16-0.09-0.32-0.14-0.48-0.14c-0.33,0-0.59,0.11-0.8,0.34
		c-0.2,0.23-0.31,0.55-0.33,0.97h-1.85c0.03-1.04,0.29-1.88,0.78-2.49c0.49-0.62,1.14-0.92,1.96-0.92c0.41,0,0.77,0.08,1.09,0.25
		c0.32,0.16,0.68,0.39,1.09,0.69c0.25,0.19,0.46,0.33,0.62,0.42c0.16,0.09,0.32,0.14,0.48,0.14c0.31,0,0.57-0.11,0.78-0.34
		c0.21-0.23,0.32-0.53,0.34-0.92h1.85c-0.03,1.01-0.29,1.83-0.78,2.43c-0.49,0.61-1.14,0.91-1.96,0.91
		C432.99,180.96,432.62,180.88,432.3,180.71z"/>
	<path class="st3" d="M443.56,194.45c-1.05-0.55-1.88-1.32-2.47-2.31c-0.59-0.98-0.89-2.1-0.89-3.35s0.3-2.36,0.89-3.35
		c0.59-0.98,1.42-1.75,2.47-2.31c1.05-0.55,2.24-0.83,3.57-0.83s2.51,0.28,3.56,0.83c1.04,0.55,1.86,1.32,2.46,2.31
		c0.59,0.98,0.89,2.1,0.89,3.35s-0.3,2.36-0.89,3.35c-0.59,0.98-1.41,1.75-2.46,2.31c-1.05,0.55-2.23,0.83-3.56,0.83
		S444.61,195.01,443.56,194.45z M449.43,191.34c0.6-0.63,0.9-1.48,0.9-2.54c0-1.06-0.3-1.91-0.9-2.54c-0.6-0.63-1.37-0.95-2.31-0.95
		s-1.71,0.32-2.32,0.95c-0.61,0.63-0.91,1.48-0.91,2.54c0,1.06,0.3,1.91,0.91,2.54c0.61,0.63,1.38,0.95,2.32,0.95
		S448.83,191.97,449.43,191.34z"/>
	<path class="st3" d="M457.58,194.9c-1-0.26-1.79-0.58-2.39-0.97l1.22-2.62c0.56,0.36,1.24,0.65,2.04,0.88
		c0.8,0.23,1.58,0.34,2.34,0.34c1.54,0,2.32-0.38,2.32-1.15c0-0.36-0.21-0.62-0.63-0.77c-0.42-0.16-1.07-0.29-1.94-0.4
		c-1.03-0.16-1.88-0.33-2.55-0.54c-0.67-0.2-1.25-0.56-1.74-1.08c-0.49-0.52-0.74-1.25-0.74-2.2c0-0.8,0.23-1.5,0.69-2.12
		s1.13-1.1,2.01-1.44c0.88-0.34,1.92-0.51,3.12-0.51c0.89,0,1.77,0.1,2.66,0.29c0.88,0.2,1.61,0.46,2.19,0.81l-1.22,2.6
		c-1.11-0.62-2.32-0.94-3.63-0.94c-0.78,0-1.37,0.11-1.76,0.33c-0.39,0.22-0.58,0.5-0.58,0.84c0,0.39,0.21,0.66,0.63,0.82
		c0.42,0.16,1.09,0.3,2.01,0.44c1.03,0.17,1.87,0.36,2.53,0.55c0.66,0.2,1.22,0.55,1.71,1.06c0.48,0.52,0.73,1.23,0.73,2.15
		c0,0.78-0.23,1.47-0.7,2.08c-0.47,0.61-1.15,1.08-2.05,1.42s-1.96,0.5-3.2,0.5C459.6,195.28,458.58,195.16,457.58,194.9z"/>
</g>
<rect x="259.03" y="106.42" class="st2" width="3.2" height="115.97"/>
</svg>
